<svg width="16" height="16" viewBox="0 0 16 16" fill="none" xmlns="http://www.w3.org/2000/svg">
<g clip-path="url(#clip0_657:48)">
<path d="M15.0383 6.87673C14.9728 6.86611 14.9066 6.86121 14.8403 6.86206H3.55262L3.79875 6.74758C4.03933 6.63371 4.2582 6.47874 4.44556 6.28967L7.6109 3.12432C8.02779 2.72636 8.09783 2.08617 7.7769 1.60747C7.40338 1.09736 6.68706 0.986601 6.17691 1.36012C6.1357 1.39032 6.09652 1.42323 6.05971 1.45865L0.335755 7.18261C-0.111572 7.62943 -0.111966 8.35426 0.334861 8.80159C0.335147 8.80188 0.335469 8.8022 0.335755 8.80249L6.05971 14.5264C6.5074 14.9729 7.23223 14.9719 7.6787 14.5242C7.71383 14.489 7.74663 14.4515 7.7769 14.412C8.09783 13.9333 8.02779 13.2931 7.6109 12.8951L4.45128 9.72404C4.28332 9.5559 4.09021 9.41491 3.87888 9.30619L3.53545 9.15165H14.7773C15.3621 9.17336 15.8752 8.76485 15.9851 8.19002C16.0863 7.56593 15.6624 6.97797 15.0383 6.87673Z" fill="black"/>
</g>
<defs>
<clipPath id="clip0_657:48">
<rect width="16" height="16" fill="white"/>
</clipPath>
</defs>
</svg>
