<svg width="16" height="16" viewBox="0 0 16 16" fill="none" xmlns="http://www.w3.org/2000/svg">
<g clip-path="url(#clip0)">
<path d="M15.4591 3.15155L10.6113 7.99995L15.4591 12.8481C16.1803 13.5695 16.1803 14.738 15.4591 15.4594C15.0989 15.8197 14.6265 16 14.1543 16C13.6814 16 13.209 15.82 12.849 15.4594L8.00001 10.6107L3.15142 15.4594C2.79117 15.8197 2.31875 16 1.84619 16C1.37377 16 0.901675 15.8199 0.541101 15.4594C-0.18 14.7383 -0.18 13.5697 0.541101 12.8481L5.38886 7.9999L0.540826 3.15155C-0.180275 2.43044 -0.180275 1.26164 0.540826 0.540534C1.26179 -0.180015 2.42991 -0.180015 3.15115 0.540534L7.99996 5.38894L12.8484 0.540534C13.5698 -0.180015 14.738 -0.180015 15.4589 0.540534C16.1803 1.26164 16.1803 2.43044 15.4591 3.15155Z" fill="white"/>
</g>
<defs>
<clipPath id="clip0">
<rect width="16" height="16" fill="white"/>
</clipPath>
</defs>
</svg>
