<svg width="16" height="16" viewBox="0 0 16 16" fill="none" xmlns="http://www.w3.org/2000/svg">
<path d="M12.2 3.8C11.9423 3.54227 11.5244 3.54227 11.2667 3.8L8.00001 7.06667L4.73335 3.8C4.47563 3.54227 4.05775 3.54227 3.80002 3.8C3.54229 4.05774 3.54229 4.4756 3.80002 4.73334L7.06668 8L3.80002 11.2667C3.54229 11.5244 3.54229 11.9423 3.80002 12.2C4.05775 12.4577 4.47563 12.4577 4.73335 12.2L8.00001 8.93334L11.2667 12.2C11.5244 12.4577 11.9423 12.4577 12.2 12.2C12.4577 11.9423 12.4577 11.5244 12.2 11.2667L8.93335 8L12.2 4.73334C12.4577 4.4756 12.4577 4.05774 12.2 3.8Z" fill="black"/>
</svg>
