<svg width="16" height="16" viewBox="0 0 16 16" fill="none" xmlns="http://www.w3.org/2000/svg">
<path d="M7.83334 2.33333C11.2391 2.33333 14 4.72114 14 7.66666C14 10.6122 11.2391 13 7.83334 13C7.2508 13 6.68707 12.9301 6.15285 12.7996C5.4532 13.4225 4.28524 13.9392 2.65007 14.3491C2.57952 14.3667 2.50489 14.3568 2.44139 14.3214C2.30364 14.2445 2.25431 14.0705 2.33121 13.9327L2.45007 13.7166C2.97519 12.7478 3.2897 11.9643 3.3936 11.3662C2.32398 10.4083 1.66667 9.10386 1.66667 7.66666C1.66667 4.72114 4.42758 2.33333 7.83334 2.33333Z" fill="black"/>
</svg>
